<?xml version="1.0" standalone="no"?>
<!DOCTYPE svg PUBLIC "-//W3C//DTD SVG 20010904//EN"
 "http://www.w3.org/TR/2001/REC-SVG-20010904/DTD/svg10.dtd">
<svg version="1.0" xmlns="http://www.w3.org/2000/svg"
 width="761.000000pt" height="300.000000pt" viewBox="0 0 761.000000 300.000000"
 preserveAspectRatio="xMidYMid meet">
<metadata>
Created by potrace 1.15, written by Peter Selinger 2001-2017
</metadata>
<g transform="translate(0.000000,300.000000) scale(0.100000,-0.100000)"
fill="#000000" stroke="none">
<path d="M3851 2981 c-61 -23 -106 -55 -171 -121 -39 -40 -1260 -1749 -1260
-1764 0 -3 156 -6 348 -6 l347 1 434 615 c239 338 438 613 442 612 5 -2 101
-140 215 -308 114 -167 227 -331 251 -365 l44 -60 -400 -5 -400 -5 -167 -230
c-91 -126 -169 -235 -171 -242 -4 -11 207 -13 1087 -13 895 0 1091 2 1088 13
-2 7 -268 397 -593 867 -398 576 -609 872 -649 911 -32 33 -84 71 -115 86 -49
25 -69 28 -166 31 -90 2 -120 -1 -164 -17z"/>
<path d="M902 2959 c-459 -59 -810 -348 -887 -728 -23 -113 -16 -325 14 -425
107 -357 417 -609 851 -692 70 -13 185 -17 635 -21 l551 -5 188 243 188 244
-709 6 c-777 6 -765 5 -899 70 -174 83 -272 258 -244 437 24 146 112 258 260
329 115 55 124 56 695 60 l530 5 175 230 c96 126 179 236 183 244 7 12 -99 14
-730 13 -406 -1 -766 -5 -801 -10z"/>
<path d="M5179 2727 l-186 -242 438 -3 439 -2 0 -695 0 -695 295 0 295 0 0
695 0 695 405 0 404 0 171 239 c93 131 170 242 170 245 0 3 -505 6 -1122 6
l-1123 0 -186 -243z"/>
<path d="M6720 1265 l0 -175 60 0 60 0 0 175 0 175 -60 0 -60 0 0 -175z"/>
<path d="M6900 1265 l0 -175 55 0 54 0 3 81 3 81 55 -81 55 -81 53 0 52 0 0
175 0 175 -55 0 -54 0 -3 -81 -3 -81 -55 81 -55 81 -52 0 -53 0 0 -175z"/>
<path d="M7361 1422 c-57 -28 -75 -63 -79 -145 -2 -60 1 -78 20 -112 29 -50
77 -75 146 -75 69 0 117 21 142 62 32 53 27 63 -50 81 -20 5 -28 1 -42 -23
-23 -40 -70 -42 -94 -5 -19 29 -15 104 6 130 18 22 66 19 83 -6 12 -17 21 -19
53 -13 63 11 66 15 46 54 -22 46 -72 70 -142 70 -33 0 -69 -7 -89 -18z"/>
<path d="M710 385 l0 -245 30 0 c26 0 30 4 31 28 0 15 3 21 6 14 8 -21 60 -42
106 -42 89 0 147 68 147 173 0 67 -25 125 -66 152 -39 25 -118 23 -155 -4
l-29 -22 0 96 0 95 -35 0 -35 0 0 -245z m206 27 c31 -24 44 -55 44 -101 0 -55
-17 -87 -55 -105 -65 -31 -125 17 -125 99 0 95 77 155 136 107z"/>
<path d="M2340 540 l0 -90 -26 16 c-33 22 -100 22 -141 0 -47 -24 -76 -86 -77
-162 0 -103 54 -164 146 -164 40 0 82 19 100 44 4 6 8 -1 8 -16 0 -24 4 -28
30 -28 l30 0 0 245 0 245 -35 0 -35 0 0 -90z m-29 -139 c24 -25 29 -37 29 -81
0 -64 -21 -105 -60 -119 -74 -25 -117 31 -112 142 2 37 52 87 87 87 16 0 38
-12 56 -29z"/>
<path d="M4270 544 c0 -78 -2 -85 -17 -79 -76 31 -131 24 -175 -22 -35 -37
-48 -73 -48 -134 0 -64 19 -108 61 -143 30 -25 39 -28 91 -24 37 3 64 11 78
23 20 18 20 18 20 -3 0 -18 6 -22 30 -22 l30 0 0 245 0 245 -35 0 -35 0 0 -86z
m-47 -126 c37 -19 46 -40 47 -104 0 -96 -49 -140 -118 -107 -36 17 -52 51 -52
106 1 50 18 85 51 103 30 17 45 17 72 2z"/>
<path d="M5390 385 l0 -245 35 0 35 0 0 118 c0 113 1 120 24 142 27 25 68 29
91 10 23 -19 35 -78 35 -177 l0 -93 30 0 30 0 0 130 c0 144 -9 175 -55 200
-36 19 -95 17 -128 -5 l-27 -17 0 91 0 91 -35 0 -35 0 0 -245z"/>
<path d="M6450 385 l0 -245 35 0 35 0 0 245 0 245 -35 0 -35 0 0 -245z"/>
<path d="M150 583 c-40 -21 -63 -42 -85 -78 -27 -44 -30 -56 -30 -134 0 -76 3
-92 27 -133 21 -35 41 -53 83 -73 48 -24 64 -27 134 -24 85 4 107 15 97 47 -6
18 -13 20 -84 15 -69 -5 -80 -3 -111 18 -54 37 -72 70 -78 135 -6 72 23 136
77 172 31 22 43 24 113 19 75 -5 77 -5 83 19 4 14 3 28 -1 32 -3 4 -43 8 -88
10 -74 3 -87 1 -137 -25z"/>
<path d="M1776 383 c-42 -125 -76 -231 -76 -235 0 -5 15 -8 33 -8 33 0 34 1
57 75 l24 75 76 0 76 0 24 -75 24 -75 38 0 c21 0 38 1 38 3 0 1 -35 106 -79
232 l-79 230 -39 3 -40 3 -77 -228z"/>
<path d="M4460 580 l0 -30 70 0 70 0 0 -205 0 -205 35 0 35 0 0 205 0 205 70
0 70 0 0 30 0 30 -175 0 -175 0 0 -30z"/>
<path d="M1170 478 c-71 -20 -110 -80 -110 -170 0 -108 59 -168 166 -168 86 0
113 11 107 44 -6 29 -4 29 -58 16 -75 -17 -145 21 -145 80 0 19 6 20 110 20
l110 0 0 40 c0 102 -84 166 -180 138z"/>
<path d="M1514 476 c-18 -8 -37 -22 -43 -33 -9 -16 -10 -15 -11 10 0 23 -4 27
-30 27 l-30 0 0 -170 0 -170 35 0 35 0 0 109 c0 103 1 111 26 140 16 19 35 31
50 31 21 0 24 5 24 35 0 39 -8 42 -56 21z"/>
<path d="M2860 483 c-14 -2 -37 -9 -53 -15 -22 -8 -26 -15 -21 -32 9 -30 11
-31 39 -18 39 18 89 15 108 -6 30 -33 21 -49 -30 -57 -27 -4 -63 -14 -81 -22
-70 -33 -83 -134 -23 -180 22 -17 100 -16 133 1 23 12 27 12 32 0 3 -8 19 -14
35 -14 l30 0 -6 133 c-6 135 -17 178 -51 195 -23 12 -81 20 -112 15z"/>
<path d="M3220 478 c-19 -5 -43 -17 -52 -25 -17 -15 -18 -14 -18 5 0 18 -6 22
-30 22 l-30 0 0 -170 0 -170 35 0 35 0 0 114 c0 106 2 117 23 142 17 19 33 27
56 27 57 0 66 -19 69 -158 l4 -125 34 0 34 0 0 120 c0 81 -5 132 -14 155 -24
55 -82 81 -146 63z"/>
<path d="M3557 479 c-85 -20 -127 -78 -127 -176 0 -104 58 -163 160 -163 71 0
100 8 100 29 0 32 -14 40 -50 32 -81 -18 -140 30 -140 112 0 82 73 135 149
109 30 -11 41 -2 41 33 0 23 -77 37 -133 24z"/>
<path d="M3820 478 c-71 -20 -110 -80 -110 -170 0 -108 59 -168 166 -168 86 0
113 11 107 44 -6 29 -4 29 -58 16 -75 -17 -145 21 -145 80 0 19 6 20 110 20
l110 0 0 40 c0 102 -84 166 -180 138z"/>
<path d="M4867 476 c-50 -18 -67 -34 -88 -81 -24 -51 -24 -130 -1 -175 27 -55
74 -80 148 -80 85 0 118 13 108 43 -9 30 -6 29 -55 18 -23 -5 -55 -7 -71 -4
-36 7 -78 49 -78 79 0 23 2 23 113 26 l112 3 -3 39 c-2 22 -9 54 -17 72 -23
55 -103 83 -168 60z"/>
<path d="M5211 480 c-75 -18 -123 -76 -129 -157 -7 -112 56 -183 163 -183 77
0 95 8 95 40 l0 29 -55 -6 c-67 -7 -98 7 -120 52 -43 93 24 189 120 171 48 -9
49 -9 57 19 7 26 2 29 -62 38 -19 3 -50 1 -69 -3z"/>
<path d="M5879 480 c-14 -4 -35 -13 -47 -19 -18 -10 -23 -9 -28 4 -4 9 -18 15
-35 15 l-29 0 0 -170 0 -170 35 0 35 0 0 99 c0 54 5 112 11 130 21 60 101 74
128 22 6 -11 11 -72 11 -135 l0 -116 35 0 35 0 0 128 c0 108 -3 132 -20 159
-28 47 -80 68 -131 53z"/>
<path d="M6203 480 c-78 -18 -123 -82 -123 -172 0 -106 59 -168 160 -168 66 0
112 25 143 78 25 43 26 134 3 184 -30 62 -109 96 -183 78z m93 -73 c22 -19 28
-34 32 -79 5 -67 -14 -110 -58 -128 -81 -33 -147 76 -106 174 25 59 84 74 132
33z"/>
<path d="M6688 478 c-75 -20 -126 -113 -112 -205 5 -34 17 -57 44 -87 35 -37
42 -40 101 -44 81 -4 124 17 157 79 20 37 23 54 19 108 -3 41 -12 73 -24 90
-40 53 -116 77 -185 59z m87 -54 c21 -8 55 -76 55 -109 0 -32 -22 -86 -42
-102 -8 -7 -29 -16 -46 -19 -24 -5 -36 -1 -56 19 -87 87 -18 252 89 211z"/>
<path d="M7036 480 c-38 -12 -75 -47 -92 -87 -18 -42 -18 -124 0 -167 29 -70
121 -100 194 -62 36 19 40 12 21 -42 -20 -58 -76 -74 -166 -46 -18 5 -25 1
-32 -17 -10 -28 1 -37 62 -51 61 -14 140 6 171 43 38 45 46 90 46 267 l0 162
-30 0 c-23 0 -30 -4 -30 -20 0 -21 0 -21 -27 -1 -35 24 -79 32 -117 21z m106
-80 c29 -29 30 -34 26 -92 -4 -51 -9 -65 -32 -85 -37 -31 -71 -29 -107 6 -24
24 -29 38 -29 76 0 108 77 160 142 95z"/>
<path d="M370 475 c0 -3 27 -73 61 -157 38 -96 58 -160 55 -174 -6 -21 -62
-78 -87 -86 -19 -6 -2 -58 19 -58 34 0 88 48 119 107 27 51 102 232 139 336
l13 37 -37 0 -38 0 -40 -122 -40 -123 -45 123 -44 122 -37 0 c-21 0 -38 -2
-38 -5z"/>
<path d="M2442 468 c3 -7 31 -84 64 -170 l59 -158 32 0 c31 0 32 0 93 158 34
86 64 163 67 170 4 10 -4 13 -33 10 l-39 -3 -40 -117 c-22 -65 -42 -118 -45
-118 -3 0 -23 53 -46 118 l-40 117 -38 3 c-29 3 -37 0 -34 -10z"/>
<path d="M7270 470 c0 -5 27 -77 60 -160 58 -146 60 -152 45 -180 -9 -17 -33
-42 -55 -56 -32 -21 -37 -29 -31 -47 5 -12 18 -23 29 -25 33 -5 112 81 141
153 62 157 121 310 121 317 0 4 -15 8 -34 8 -34 0 -34 -1 -66 -87 -17 -49 -34
-100 -37 -116 -8 -42 -19 -41 -32 4 -7 23 -26 76 -43 120 -29 77 -30 79 -64
79 -19 0 -34 -4 -34 -10z"/>
</g>
</svg>
